<?xml version="1.0" encoding="UTF-8" standalone="no"?>
<!-- Created with Inkscape (http://www.inkscape.org/) -->
<svg
   xmlns:dc="http://purl.org/dc/elements/1.1/"
   xmlns:cc="http://web.resource.org/cc/"
   xmlns:rdf="http://www.w3.org/1999/02/22-rdf-syntax-ns#"
   xmlns:svg="http://www.w3.org/2000/svg"
   xmlns="http://www.w3.org/2000/svg"
   xmlns:xlink="http://www.w3.org/1999/xlink"
   xmlns:sodipodi="http://sodipodi.sourceforge.net/DTD/sodipodi-0.dtd"
   xmlns:inkscape="http://www.inkscape.org/namespaces/inkscape"
   width="22"
   height="22"
   id="svg4908"
   sodipodi:version="0.32"
   inkscape:version="0.45+devel"
   version="1.0"
   sodipodi:docname="phone-connecting.svg"
   inkscape:output_extension="org.inkscape.output.svg.inkscape"
   inkscape:export-filename="/home/andreas/project/misc icons/22x22/status/message.png"
   inkscape:export-xdpi="90"
   inkscape:export-ydpi="90">
  <defs
     id="defs4910">
    <linearGradient
       inkscape:collect="always"
       id="linearGradient6022">
      <stop
         style="stop-color:#babdb6;stop-opacity:1;"
         offset="0"
         id="stop6024" />
      <stop
         style="stop-color:#c7cac4;stop-opacity:1"
         offset="1"
         id="stop6026" />
    </linearGradient>
    <radialGradient
       inkscape:collect="always"
       xlink:href="#linearGradient8046"
       id="radialGradient7450"
       gradientUnits="userSpaceOnUse"
       gradientTransform="matrix(0.5976602,0,0,2.3353391,-21.520632,-53.025677)"
       cx="64.5"
       cy="29.797501"
       fx="64.5"
       fy="29.797501"
       r="10.5" />
    <linearGradient
       id="linearGradient8216">
      <stop
         style="stop-color:#888a85;stop-opacity:1;"
         offset="0"
         id="stop8218" />
      <stop
         style="stop-color:#babdb6;stop-opacity:1"
         offset="1"
         id="stop8220" />
    </linearGradient>
    <linearGradient
       inkscape:collect="always"
       xlink:href="#linearGradient8216"
       id="linearGradient7516"
       gradientUnits="userSpaceOnUse"
       gradientTransform="translate(-59,0)"
       x1="71.739273"
       y1="2.2823277"
       x2="71.739273"
       y2="5.5714717" />
    <linearGradient
       id="linearGradient8046">
      <stop
         style="stop-color:#ffffff;stop-opacity:1"
         offset="0"
         id="stop8048" />
      <stop
         style="stop-color:#888a85;stop-opacity:1"
         offset="1"
         id="stop8050" />
    </linearGradient>
    <radialGradient
       inkscape:collect="always"
       xlink:href="#linearGradient8046"
       id="radialGradient6194"
       gradientUnits="userSpaceOnUse"
       gradientTransform="matrix(0.5976602,0,0,2.3353391,-21.520632,-53.025677)"
       cx="64.5"
       cy="29.797501"
       fx="64.5"
       fy="29.797501"
       r="10.5" />
    <linearGradient
       inkscape:collect="always"
       id="linearGradient7088">
      <stop
         style="stop-color:#ffffff;stop-opacity:1;"
         offset="0"
         id="stop7090" />
      <stop
         style="stop-color:#ffffff;stop-opacity:0;"
         offset="1"
         id="stop7092" />
    </linearGradient>
    <linearGradient
       inkscape:collect="always"
       xlink:href="#linearGradient7088"
       id="linearGradient7453"
       gradientUnits="userSpaceOnUse"
       x1="21.8125"
       y1="7.6875"
       x2="26.5"
       y2="19.9375" />
    <linearGradient
       id="linearGradient7972">
      <stop
         style="stop-color:#ffffff;stop-opacity:1"
         offset="0"
         id="stop7974" />
      <stop
         style="stop-color:#eeeeec;stop-opacity:1"
         offset="1"
         id="stop7976" />
    </linearGradient>
    <linearGradient
       inkscape:collect="always"
       xlink:href="#linearGradient7972"
       id="linearGradient7456"
       gradientUnits="userSpaceOnUse"
       gradientTransform="matrix(0.3571428,0,0,0.3636363,-6.0072624,4.2964381)"
       x1="65.4375"
       y1="19.690521"
       x2="65.4375"
       y2="10.6875" />
    <linearGradient
       inkscape:collect="always"
       id="linearGradient7917">
      <stop
         style="stop-color:#ffffff;stop-opacity:1;"
         offset="0"
         id="stop7919" />
      <stop
         style="stop-color:#ffffff;stop-opacity:0;"
         offset="1"
         id="stop7921" />
    </linearGradient>
    <linearGradient
       inkscape:collect="always"
       xlink:href="#linearGradient7917"
       id="linearGradient7459"
       gradientUnits="userSpaceOnUse"
       gradientTransform="matrix(0.3888888,0,0,0.2972973,-8.0548824,5.5458238)"
       x1="59.510406"
       y1="8.375"
       x2="87.042259"
       y2="92.265244" />
    <linearGradient
       inkscape:collect="always"
       id="linearGradient8236">
      <stop
         style="stop-color:#000000;stop-opacity:1;"
         offset="0"
         id="stop8238" />
      <stop
         style="stop-color:#000000;stop-opacity:0;"
         offset="1"
         id="stop8240" />
    </linearGradient>
    <linearGradient
       inkscape:collect="always"
       xlink:href="#linearGradient8236"
       id="linearGradient7462"
       gradientUnits="userSpaceOnUse"
       gradientTransform="matrix(0.2500001,0,0,0.2222222,10.903448,6.7004787)"
       x1="23.334524"
       y1="12.556273"
       x2="23.334524"
       y2="28.203257" />
    <linearGradient
       inkscape:collect="always"
       xlink:href="#linearGradient7408"
       id="linearGradient7465"
       gradientUnits="userSpaceOnUse"
       gradientTransform="matrix(1,0,0,2,7.0284476,-12.021744)"
       x1="8"
       y1="13.765625"
       x2="7.7342787"
       y2="13.234375" />
    <linearGradient
       inkscape:collect="always"
       xlink:href="#linearGradient7408"
       id="linearGradient7468"
       gradientUnits="userSpaceOnUse"
       gradientTransform="matrix(1,0,0,2,9.0284476,-12.021744)"
       x1="8"
       y1="13.765625"
       x2="7.7342787"
       y2="13.234375" />
    <linearGradient
       inkscape:collect="always"
       xlink:href="#linearGradient7408"
       id="linearGradient7471"
       gradientUnits="userSpaceOnUse"
       gradientTransform="matrix(1,0,0,2,11.028448,-12.021744)"
       x1="8"
       y1="13.765625"
       x2="7.7342787"
       y2="13.234375" />
    <linearGradient
       inkscape:collect="always"
       xlink:href="#linearGradient7408"
       id="linearGradient7474"
       gradientUnits="userSpaceOnUse"
       gradientTransform="matrix(1,0,0,2,7.0284476,-10.021744)"
       x1="8"
       y1="13.765625"
       x2="7.7342787"
       y2="13.234375" />
    <linearGradient
       inkscape:collect="always"
       xlink:href="#linearGradient7408"
       id="linearGradient7477"
       gradientUnits="userSpaceOnUse"
       gradientTransform="matrix(1,0,0,2,9.0284476,-10.021744)"
       x1="8"
       y1="13.765625"
       x2="7.7342787"
       y2="13.234375" />
    <linearGradient
       inkscape:collect="always"
       id="linearGradient7408">
      <stop
         style="stop-color:#555753;stop-opacity:1;"
         offset="0"
         id="stop7410" />
      <stop
         style="stop-color:#babdb6;stop-opacity:0.93129772"
         offset="1"
         id="stop7412" />
    </linearGradient>
    <linearGradient
       inkscape:collect="always"
       xlink:href="#linearGradient7408"
       id="linearGradient7480"
       gradientUnits="userSpaceOnUse"
       gradientTransform="matrix(1,0,0,2,11.028448,-10.021744)"
       x1="8"
       y1="13.765625"
       x2="7.7342787"
       y2="13.234375" />
    <linearGradient
       id="linearGradient7504">
      <stop
         id="stop7506"
         offset="0"
         style="stop-color:#ffffff;stop-opacity:1;" />
      <stop
         id="stop7508"
         offset="1"
         style="stop-color:#babdb6;stop-opacity:1" />
    </linearGradient>
    <linearGradient
       inkscape:collect="always"
       xlink:href="#linearGradient7504"
       id="linearGradient7486"
       gradientUnits="userSpaceOnUse"
       gradientTransform="matrix(0.4375,0,0,0.3111177,6.3096976,6.1891049)"
       x1="26.90625"
       y1="35.53125"
       x2="23.749973"
       y2="22.53125" />
    <linearGradient
       inkscape:collect="always"
       id="linearGradient6334">
      <stop
         style="stop-color:#f8f8f8;stop-opacity:1"
         offset="0"
         id="stop6336" />
      <stop
         style="stop-color:#ebebeb;stop-opacity:1"
         offset="1"
         id="stop6338" />
    </linearGradient>
    <linearGradient
       id="linearGradient6328"
       inkscape:collect="always">
      <stop
         id="stop6330"
         offset="0"
         style="stop-color:#000000;stop-opacity:0.15" />
      <stop
         id="stop6332"
         offset="1"
         style="stop-color:#000000;stop-opacity:0;" />
    </linearGradient>
    <linearGradient
       inkscape:collect="always"
       xlink:href="#linearGradient6328"
       id="linearGradient6322"
       x1="9.6614799"
       y1="9.4653349"
       x2="3.1573462"
       y2="9.4653349"
       gradientUnits="userSpaceOnUse"
       gradientTransform="matrix(1.0406689,0,0,0.9878845,3.8656398e-2,0.8084435)" />
    <linearGradient
       inkscape:collect="always"
       xlink:href="#linearGradient6334"
       id="linearGradient6340"
       x1="10.60476"
       y1="4.6528454"
       x2="10.33685"
       y2="12.645486"
       gradientUnits="userSpaceOnUse"
       gradientTransform="matrix(1.0031665,0,0,0.9993094,-8.7732133e-2,0.9736284)" />
    <linearGradient
       inkscape:collect="always"
       xlink:href="#linearGradient6022"
       id="linearGradient6028"
       x1="15.40625"
       y1="15.296875"
       x2="9.4375"
       y2="7.046875"
       gradientUnits="userSpaceOnUse" />
    <filter
       inkscape:collect="always"
       x="-0.18165886"
       width="1.3633177"
       y="-0.26675168"
       height="1.5335034"
       id="filter6228">
      <feGaussianBlur
         inkscape:collect="always"
         stdDeviation="1.3198652"
         id="feGaussianBlur6230" />
    </filter>
    <radialGradient
       inkscape:collect="always"
       xlink:href="#linearGradient8046"
       id="radialGradient7571"
       gradientUnits="userSpaceOnUse"
       gradientTransform="matrix(0.8865642,0,0,3.4492956,-20.199848,-74.335697)"
       cx="64.5"
       cy="29.797501"
       fx="64.5"
       fy="29.797501"
       r="10.5" />
    <linearGradient
       inkscape:collect="always"
       xlink:href="#linearGradient8216"
       id="linearGradient7573"
       gradientUnits="userSpaceOnUse"
       gradientTransform="translate(-59,0)"
       x1="71.739273"
       y1="2.2823277"
       x2="71.739273"
       y2="5.5714717" />
    <radialGradient
       inkscape:collect="always"
       xlink:href="#linearGradient8046"
       id="radialGradient7575"
       gradientUnits="userSpaceOnUse"
       gradientTransform="matrix(0.8865642,0,0,3.4492956,-20.199848,-74.335697)"
       cx="64.5"
       cy="29.797501"
       fx="64.5"
       fy="29.797501"
       r="10.5" />
    <linearGradient
       inkscape:collect="always"
       xlink:href="#linearGradient7088"
       id="linearGradient7577"
       gradientUnits="userSpaceOnUse"
       x1="21.8125"
       y1="7.6875"
       x2="26.5"
       y2="19.9375" />
    <linearGradient
       inkscape:collect="always"
       xlink:href="#linearGradient7972"
       id="linearGradient7579"
       gradientUnits="userSpaceOnUse"
       gradientTransform="matrix(0.5297827,0,0,0.5370908,2.8125558,10.329061)"
       x1="65.4375"
       y1="19.690521"
       x2="65.4375"
       y2="10.6875" />
    <linearGradient
       inkscape:collect="always"
       xlink:href="#linearGradient7917"
       id="linearGradient7581"
       gradientUnits="userSpaceOnUse"
       gradientTransform="matrix(0.5768744,0,0,0.4391081,-0.2248672,12.174404)"
       x1="59.510406"
       y1="8.375"
       x2="87.042259"
       y2="92.265244" />
    <linearGradient
       inkscape:collect="always"
       xlink:href="#linearGradient8236"
       id="linearGradient7583"
       gradientUnits="userSpaceOnUse"
       gradientTransform="matrix(0.3708481,0,0,0.3282222,27.897763,13.879829)"
       x1="23.334524"
       y1="12.556273"
       x2="23.334524"
       y2="28.203257" />
    <linearGradient
       inkscape:collect="always"
       xlink:href="#linearGradient7408"
       id="linearGradient7585"
       gradientUnits="userSpaceOnUse"
       gradientTransform="matrix(1.4833917,0,0,2.9539998,22.14962,-13.772892)"
       x1="8"
       y1="13.765625"
       x2="7.7342787"
       y2="13.234375" />
    <linearGradient
       inkscape:collect="always"
       xlink:href="#linearGradient7408"
       id="linearGradient7587"
       gradientUnits="userSpaceOnUse"
       gradientTransform="matrix(1.4833917,0,0,2.9539998,25.116403,-13.772892)"
       x1="8"
       y1="13.765625"
       x2="7.7342787"
       y2="13.234375" />
    <linearGradient
       inkscape:collect="always"
       xlink:href="#linearGradient7408"
       id="linearGradient7589"
       gradientUnits="userSpaceOnUse"
       gradientTransform="matrix(1.4833917,0,0,2.9539998,28.083187,-13.772892)"
       x1="8"
       y1="13.765625"
       x2="7.7342787"
       y2="13.234375" />
    <linearGradient
       inkscape:collect="always"
       xlink:href="#linearGradient7408"
       id="linearGradient7591"
       gradientUnits="userSpaceOnUse"
       gradientTransform="matrix(1.4833917,0,0,2.9539998,22.14962,-10.818892)"
       x1="8"
       y1="13.765625"
       x2="7.7342787"
       y2="13.234375" />
    <linearGradient
       inkscape:collect="always"
       xlink:href="#linearGradient7408"
       id="linearGradient7593"
       gradientUnits="userSpaceOnUse"
       gradientTransform="matrix(1.4833917,0,0,2.9539998,25.116403,-10.818892)"
       x1="8"
       y1="13.765625"
       x2="7.7342787"
       y2="13.234375" />
    <linearGradient
       inkscape:collect="always"
       xlink:href="#linearGradient7408"
       id="linearGradient7595"
       gradientUnits="userSpaceOnUse"
       gradientTransform="matrix(1.4833917,0,0,2.9539998,28.083187,-10.818892)"
       x1="8"
       y1="13.765625"
       x2="7.7342787"
       y2="13.234375" />
    <linearGradient
       inkscape:collect="always"
       xlink:href="#linearGradient7504"
       id="linearGradient7597"
       gradientUnits="userSpaceOnUse"
       gradientTransform="matrix(0.6489839,0,0,0.4595208,21.083432,13.12453)"
       x1="3.863548"
       y1="28.320135"
       x2="1.3245887"
       y2="4.0647888" />
    <linearGradient
       inkscape:collect="always"
       xlink:href="#linearGradient6328"
       id="linearGradient7603"
       gradientUnits="userSpaceOnUse"
       gradientTransform="matrix(-1.0406689,0,0,0.9878845,21.942112,0.5432785)"
       x1="9.6614799"
       y1="9.4653349"
       x2="3.1573462"
       y2="9.4653349" />
  </defs>
  <sodipodi:namedview
     id="base"
     pagecolor="#ffffff"
     bordercolor="#dddddd"
     borderopacity="1"
     inkscape:pageopacity="0.0"
     inkscape:pageshadow="2"
     inkscape:zoom="11.313708"
     inkscape:cx="23.999879"
     inkscape:cy="19.651277"
     inkscape:current-layer="layer3"
     showgrid="true"
     inkscape:grid-bbox="true"
     inkscape:document-units="px"
     width="22px"
     height="22px"
     inkscape:window-width="1680"
     inkscape:window-height="973"
     inkscape:window-x="0"
     inkscape:window-y="48"
     showborder="true"
     inkscape:showpageshadow="false">
    <inkscape:grid
       type="xygrid"
       id="grid4953" />
  </sodipodi:namedview>
  <metadata
     id="metadata4913">
    <rdf:RDF>
      <cc:Work
         rdf:about="">
        <dc:format>image/svg+xml</dc:format>
        <dc:type
           rdf:resource="http://purl.org/dc/dcmitype/StillImage" />
      </cc:Work>
    </rdf:RDF>
  </metadata>
  <g
     inkscape:groupmode="layer"
     id="layer3"
     inkscape:label="connecting"
     style="display:inline">
    <path
       sodipodi:type="arc"
       style="opacity:0.17934786;fill:#000000;fill-opacity:1;stroke:none;stroke-width:1;stroke-linecap:butt;stroke-linejoin:miter;stroke-miterlimit:4;stroke-dasharray:none;stroke-dashoffset:0;stroke-opacity:1;filter:url(#filter6228)"
       id="path6082"
       sodipodi:cx="6.53125"
       sodipodi:cy="26.625"
       sodipodi:rx="8.71875"
       sodipodi:ry="5.9375"
       d="M 15.25,26.625 A 8.71875,5.9375 0 1 1 -2.1875,26.625 A 8.71875,5.9375 0 1 1 15.25,26.625 z"
       transform="matrix(1.041557,0,0,0.3315789,4.2064835,11.140462)" />
    <path
       style="opacity:1;fill:url(#linearGradient6028);fill-opacity:1;stroke:#555753;stroke-width:0.99999988;stroke-linecap:butt;stroke-linejoin:miter;stroke-miterlimit:4;stroke-dasharray:none;stroke-dashoffset:0;stroke-opacity:1;display:inline"
       d="M 10.96875,1.5625 C 10.382,1.5625 9.776108,1.6165455 9.21875,1.71875 L 8.5625,5.65625 L 5.65625,3.1875 L 5.625,3.1875 C 4.644603,3.8500236 3.797759,4.6833966 3.125,5.65625 L 5.34375,8.75 L 1.625,9.21875 C 1.509914,9.8087419 1.46875,10.407743 1.46875,11.03125 C 1.46875,11.618 1.522795,12.223892 1.625,12.78125 L 5.40625,13.3125 L 3.09375,16.34375 C 3.7558049,17.323457 4.590519,18.171216 5.5625,18.84375 L 8.5,16.6875 L 9.09375,20.34375 C 9.6857621,20.45966 10.342957,20.53125 10.96875,20.53125 C 11.553507,20.53125 12.100669,20.476527 12.65625,20.375 L 13.1875,16.5625 L 16.25,18.90625 C 17.229707,18.244195 18.077466,17.409481 18.75,16.4375 L 16.40625,13.375 L 20.21875,12.875 C 20.33466,12.282988 20.4375,11.657042 20.4375,11.03125 C 20.437501,10.446493 20.351527,9.8680807 20.25,9.3125 L 16.625,8.75 L 18.8125,5.78125 C 18.80807,5.7746586 18.816947,5.7565796 18.8125,5.75 C 18.149977,4.7696029 17.316603,3.9227589 16.34375,3.25 L 13.21875,5.53125 L 12.78125,1.75 C 12.18996,1.6343852 11.593724,1.5625 10.96875,1.5625 z M 11.0625,8.53125 C 12.433875,8.5312497 13.53125,9.6286251 13.53125,11 C 13.53125,12.371375 12.433875,13.5 11.0625,13.5 C 9.6911248,13.5 8.5625,12.371375 8.5625,11 C 8.5624998,9.6286256 9.6911249,8.53125 11.0625,8.53125 z"
       id="path7047" />
    <path
       style="opacity:0.47282607;fill:none;fill-opacity:1;stroke:#ffffff;stroke-width:1;stroke-linecap:butt;stroke-linejoin:miter;stroke-miterlimit:4;stroke-dasharray:none;stroke-dashoffset:0;stroke-opacity:1;display:inline"
       d="M 10.9705,2.4776065 C 10.445266,2.4776065 10.623635,2.5387017 10.124712,2.6299527 L 9.7382684,5.6894361 L 8.6447181,6.84857 L 5.7051136,4.3668369 C 4.7719355,4.9075266 4.9484487,4.7774318 4.2791038,5.6035846 L 6.7417405,8.6749388 L 6.2058237,9.8531526 L 2.5763148,10.147483 C 2.4732948,10.674244 2.4677648,10.464523 2.4677648,11.021207 C 2.4677648,11.545073 2.396437,11.453717 2.4879265,11.951342 L 6.2556046,12.458201 L 6.5677225,13.495047 L 4.3607724,16.388048 C 4.9534156,17.262756 4.6890142,17.005536 5.5590899,17.605993 L 8.5938034,15.326428 L 9.7502844,16.176203 L 10.022882,19.500851 C 10.552826,19.604339 10.410316,19.501811 10.9705,19.501811 C 11.493949,19.501811 11.249303,19.616888 11.746635,19.526242 L 12.298551,15.945146 L 13.405432,15.254164 L 16.368468,17.745163 C 17.245459,17.154062 16.99022,17.287838 17.592243,16.420027 L 15.322362,13.713204 L 15.615742,12.553177 L 19.31377,12.052906 C 19.417527,11.524342 19.447776,11.579931 19.447776,11.021207 C 19.447776,10.49912 19.518499,10.656696 19.427616,10.160659 L 15.906363,9.8747693 L 15.161673,8.7180366 L 17.731545,5.7935371 C 17.154771,4.9507044 18.14979,6.1274279 16.400645,4.5502014 L 13.336492,6.9053238 L 12.128494,6.12266 L 11.848465,2.6553437 C 11.319168,2.5521196 11.52995,2.4776065 10.9705,2.4776065 z"
       id="path5056"
       sodipodi:nodetypes="cccccccccsccccccccsccccccccsccccccccc" />
    <path
       sodipodi:type="arc"
       style="opacity:0.47282607;fill:none;fill-opacity:1;stroke:#ffffff;stroke-width:1.13959515;stroke-linecap:butt;stroke-linejoin:miter;stroke-miterlimit:4;stroke-dasharray:none;stroke-dashoffset:0;stroke-opacity:1"
       id="path6016"
       sodipodi:cx="11.38"
       sodipodi:cy="10.885165"
       sodipodi:rx="3.9995728"
       sodipodi:ry="3.9995728"
       d="M 15.379573,10.885165 A 3.9995728,3.9995728 0 1 1 7.3804274,10.885165 A 3.9995728,3.9995728 0 1 1 15.379573,10.885165 z"
       transform="matrix(0.8724681,0,0,0.88257,1.0444117,1.3978835)" />
  </g>
  <g
     inkscape:groupmode="layer"
     id="layer2"
     inkscape:label="phone"
     style="display:inline">
    <g
       id="g6959"
       transform="matrix(0.6741308,0,0,0.6770481,1.0230756,2.3459296)">
      <path
         style="opacity:1;fill:url(#radialGradient7571);fill-opacity:1;fill-rule:evenodd;stroke:#555753;stroke-width:1.48019254;stroke-linecap:round;stroke-linejoin:miter;stroke-miterlimit:4;stroke-dasharray:none;stroke-opacity:1;display:inline"
         d="M 20.294909,7.6757224 C 18.419887,7.6757224 16.91555,8.8490043 16.91555,9.8142651 L 16.91555,20.753323 C 16.91555,23.686929 18.568745,26.876718 20.628657,26.876718 L 26.552953,26.876718 C 28.61288,26.876718 30.266075,23.686929 30.266075,20.753323 L 30.266075,9.8142651 C 30.266075,8.8490043 28.761738,7.6757224 26.886716,7.6757224 L 20.294909,7.6757224 z"
         id="path7520"
         sodipodi:nodetypes="ccccccccc" />
      <g
         style="display:inline"
         id="g7510"
         transform="matrix(1.4833917,0,0,1.4769999,8.7568958,3.9832227)">
        <rect
           ry="1"
           rx="1"
           y="0.5625"
           x="11.5"
           height="9"
           width="2"
           id="rect7512"
           style="opacity:1;fill:url(#linearGradient7573);fill-opacity:1;fill-rule:evenodd;stroke:#555753;stroke-width:0.99999994;stroke-linecap:round;stroke-linejoin:round;stroke-miterlimit:4;stroke-dasharray:none;stroke-opacity:1;display:inline" />
        <path
           transform="matrix(1.6551692,0,0,1.7962963,-106.0946,-1.105035)"
           d="M 71.953125,1.5937499 A 0.453125,0.421875 0 1 1 71.046875,1.5937499 A 0.453125,0.421875 0 1 1 71.953125,1.5937499 z"
           sodipodi:ry="0.421875"
           sodipodi:rx="0.453125"
           sodipodi:cy="1.5937499"
           sodipodi:cx="71.5"
           id="path7514"
           style="opacity:1;fill:#eeeeec;fill-opacity:1;fill-rule:evenodd;stroke:none;stroke-width:1;stroke-linecap:round;stroke-linejoin:round;stroke-miterlimit:4;stroke-dasharray:none;stroke-opacity:1;display:inline"
           sodipodi:type="arc" />
      </g>
      <path
         style="opacity:1;fill:url(#radialGradient7575);fill-opacity:1;fill-rule:evenodd;stroke:#555753;stroke-width:1.48019254;stroke-linecap:round;stroke-linejoin:miter;stroke-miterlimit:4;stroke-dasharray:none;stroke-opacity:1;display:inline"
         d="M 20.294909,7.6757224 C 18.419887,7.6757224 16.91555,8.8490043 16.91555,9.8142651 L 16.91555,20.753323 C 16.91555,23.686929 18.568745,26.876718 20.628657,26.876718 L 26.552953,26.876718 C 28.61288,26.876718 30.266075,23.686929 30.266075,20.753323 L 30.266075,9.8142651 C 30.266075,8.8490043 28.761738,7.6757224 26.886716,7.6757224 L 20.294909,7.6757224 z"
         id="path7420"
         sodipodi:nodetypes="ccccccccc" />
      <path
         sodipodi:type="inkscape:offset"
         inkscape:radius="-0.5"
         inkscape:original="M 19.5625 5.5 C 16.753603 5.5 14.5 7.0706659 14.5 9.03125 L 14.5 33.75 C 14.5 39.708578 16.976602 44.5 20.0625 44.5 L 28.9375 44.5 C 32.023397 44.5 34.5 39.708577 34.5 33.75 L 34.5 9.03125 C 34.5 7.0706659 32.246396 5.5 29.4375 5.5 L 19.5625 5.5 z "
         style="opacity:0.47761195;fill:url(#linearGradient7577);fill-opacity:1;fill-rule:evenodd;stroke:none;stroke-width:1;stroke-linecap:round;stroke-linejoin:miter;stroke-miterlimit:4;stroke-dasharray:none;stroke-opacity:1;display:inline"
         id="path7422"
         d="M 19.5625,6 C 18.251247,6 17.065963,6.3684846 16.25,6.9375 C 15.434037,7.5065154 15,8.2425338 15,9.03125 L 15,33.75 C 15,36.660016 15.605563,39.275023 16.5625,41.125 C 17.519437,42.974977 18.778332,44 20.0625,44 L 28.9375,44 C 30.221668,44 31.480563,42.974977 32.4375,41.125 C 33.394437,39.275023 34,36.660016 34,33.75 L 34,9.03125 C 34,8.2425339 33.565963,7.5065155 32.75,6.9375 C 31.934037,6.3684845 30.748752,6 29.4375,6 L 19.5625,6 z"
         transform="matrix(0.6245859,0,0,0.4664211,8.2884548,5.615696)" />
      <rect
         style="opacity:1;fill:url(#linearGradient7579);fill-opacity:1;fill-rule:evenodd;stroke:#888a85;stroke-width:1.48019218;stroke-linecap:round;stroke-linejoin:miter;stroke-miterlimit:4;stroke-dasharray:none;stroke-opacity:1;display:inline"
         id="rect7424"
         width="7.4169583"
         height="5.9079995"
         x="19.882332"
         y="10.629723"
         rx="1.0801365"
         ry="1.0950364" />
      <path
         style="opacity:0.86194033;fill:none;fill-opacity:1;fill-rule:evenodd;stroke:url(#linearGradient7581);stroke-width:1.4801923;stroke-linecap:round;stroke-linejoin:miter;stroke-miterlimit:4;stroke-opacity:1;display:inline"
         d="M 20.742493,9.1527223 C 20.039217,9.1527223 19.408345,9.3031981 18.993841,9.5232198 C 18.579352,9.7432415 18.398942,10.001058 18.398942,10.264215 L 18.398942,21.118418 C 18.398942,22.366155 18.739573,23.488693 19.264248,24.260786 C 19.788939,25.032879 20.43773,25.399723 21.030938,25.399723 L 26.150687,25.399723 C 26.743895,25.399723 27.392686,25.032879 27.917377,24.260786 C 28.442052,23.488693 28.782683,22.366154 28.782683,21.118418 L 28.782683,10.264215 C 28.782683,10.001058 28.602288,9.7432415 28.187784,9.5232198 C 27.77328,9.3031981 27.142393,9.1527223 26.439132,9.1527223 L 20.742493,9.1527223 z"
         id="path7426"
         sodipodi:nodetypes="csccsccsccscc" />
      <rect
         style="opacity:0.09328356;fill:none;fill-opacity:1;fill-rule:evenodd;stroke:url(#linearGradient7583);stroke-width:1.48019254;stroke-linecap:round;stroke-linejoin:miter;stroke-miterlimit:4;stroke-dasharray:none;stroke-opacity:1;display:inline"
         id="rect7428"
         width="4.4501753"
         height="2.9539998"
         x="21.365723"
         y="12.106723"
         rx="0.10036098"
         ry="0.099928513" />
      <rect
         style="opacity:1;fill:url(#linearGradient7585);fill-opacity:1;fill-rule:evenodd;stroke:none;stroke-width:0.97000003;stroke-linecap:round;stroke-linejoin:round;stroke-miterlimit:4;stroke-dasharray:none;stroke-opacity:1;display:inline"
         id="rect7432"
         width="2.9667833"
         height="2.9539998"
         x="19.140636"
         y="18.753222"
         rx="0.57944989"
         ry="0.57695311" />
      <rect
         style="opacity:1;fill:url(#linearGradient7587);fill-opacity:1;fill-rule:evenodd;stroke:none;stroke-width:0.97000003;stroke-linecap:round;stroke-linejoin:round;stroke-miterlimit:4;stroke-dasharray:none;stroke-opacity:1;display:inline"
         id="rect7434"
         width="2.9667833"
         height="2.9539998"
         x="22.107418"
         y="18.753222"
         rx="0.57944989"
         ry="0.57695311" />
      <rect
         style="opacity:1;fill:url(#linearGradient7589);fill-opacity:1;fill-rule:evenodd;stroke:none;stroke-width:0.97000003;stroke-linecap:round;stroke-linejoin:round;stroke-miterlimit:4;stroke-dasharray:none;stroke-opacity:1;display:inline"
         id="rect7436"
         width="2.9667833"
         height="2.9539998"
         x="25.074203"
         y="18.753222"
         rx="0.57944989"
         ry="0.57695311" />
      <rect
         style="opacity:1;fill:url(#linearGradient7591);fill-opacity:1;fill-rule:evenodd;stroke:none;stroke-width:0.97000003;stroke-linecap:round;stroke-linejoin:round;stroke-miterlimit:4;stroke-dasharray:none;stroke-opacity:1;display:inline"
         id="rect7438"
         width="2.9667833"
         height="2.9539998"
         x="19.140636"
         y="21.707222"
         rx="0.57944989"
         ry="0.57695311" />
      <rect
         style="opacity:1;fill:url(#linearGradient7593);fill-opacity:1;fill-rule:evenodd;stroke:none;stroke-width:0.97000003;stroke-linecap:round;stroke-linejoin:round;stroke-miterlimit:4;stroke-dasharray:none;stroke-opacity:1;display:inline"
         id="rect7440"
         width="2.9667833"
         height="2.9539998"
         x="22.107418"
         y="21.707222"
         rx="0.57944989"
         ry="0.57695311" />
      <rect
         style="opacity:1;fill:url(#linearGradient7595);fill-opacity:1;fill-rule:evenodd;stroke:none;stroke-width:0.97000003;stroke-linecap:round;stroke-linejoin:round;stroke-miterlimit:4;stroke-dasharray:none;stroke-opacity:1;display:inline"
         id="rect7442"
         width="2.9667833"
         height="2.9539998"
         x="25.074203"
         y="21.707222"
         rx="0.57944989"
         ry="0.57695311" />
      <path
         style="fill:none;fill-opacity:1;fill-rule:evenodd;stroke:url(#linearGradient7597);stroke-width:1.4801923;stroke-linecap:round;stroke-linejoin:miter;stroke-miterlimit:4;stroke-opacity:1;display:inline"
         d="M 18.398942,18.567408 L 18.398942,19.971628 C 18.398942,21.671477 18.658476,22.957353 19.108774,23.863197 C 19.333909,24.31612 19.599391,24.667574 19.960552,24.940199 C 20.321729,25.212823 20.806145,25.399721 21.319369,25.399721 L 25.862256,25.399721 C 26.371979,25.399721 26.858813,25.224995 27.221073,24.954559 C 27.583317,24.684121 27.84742,24.314735 28.072851,23.863197 C 28.523743,22.960122 28.782683,21.685616 28.782683,19.971628 L 28.782683,18.567408 C 28.329507,17.819533 27.466247,18.047386 26.490962,18.047386 L 23.144682,18.047386 L 20.690663,18.047386 C 19.487395,18.047386 19.031282,17.845829 18.398942,18.567408 z"
         id="path7444"
         sodipodi:nodetypes="ccssccsscccccc" />
      <rect
         style="opacity:1;fill:#3465a4;fill-opacity:1;fill-rule:evenodd;stroke:none;stroke-width:1;stroke-linecap:round;stroke-linejoin:round;stroke-miterlimit:4;stroke-dasharray:none;stroke-opacity:1;display:inline"
         id="rect7525"
         width="1.483392"
         height="1.4769999"
         x="25.074203"
         y="14.322223" />
      <rect
         style="opacity:1;fill:#3465a4;fill-opacity:1;fill-rule:evenodd;stroke:none;stroke-width:1;stroke-linecap:round;stroke-linejoin:round;stroke-miterlimit:4;stroke-dasharray:none;stroke-opacity:1;display:inline"
         id="rect7527"
         width="1.483392"
         height="1.4769999"
         x="20.624027"
         y="14.322223" />
    </g>
  </g>
</svg>
