<?xml version="1.0" encoding="UTF-8" standalone="no"?>
<!-- Created with Inkscape (http://www.inkscape.org/) -->
<svg
   xmlns:dc="http://purl.org/dc/elements/1.1/"
   xmlns:cc="http://web.resource.org/cc/"
   xmlns:rdf="http://www.w3.org/1999/02/22-rdf-syntax-ns#"
   xmlns:svg="http://www.w3.org/2000/svg"
   xmlns="http://www.w3.org/2000/svg"
   xmlns:xlink="http://www.w3.org/1999/xlink"
   xmlns:sodipodi="http://sodipodi.sourceforge.net/DTD/sodipodi-0.dtd"
   xmlns:inkscape="http://www.inkscape.org/namespaces/inkscape"
   width="16px"
   height="16px"
   id="svg5038"
   sodipodi:version="0.32"
   inkscape:version="0.45+devel"
   sodipodi:docname="phone-connecting.svg"
   inkscape:output_extension="org.inkscape.output.svg.inkscape">
  <defs
     id="defs5040">
    <linearGradient
       inkscape:collect="always"
       id="linearGradient7917">
      <stop
         style="stop-color:#ffffff;stop-opacity:1;"
         offset="0"
         id="stop7919" />
      <stop
         style="stop-color:#ffffff;stop-opacity:0;"
         offset="1"
         id="stop7921" />
    </linearGradient>
    <linearGradient
       inkscape:collect="always"
       xlink:href="#linearGradient7917"
       id="linearGradient7009"
       gradientUnits="userSpaceOnUse"
       gradientTransform="matrix(0.3357963,0,0,0.2778913,-4.6114858,5.83515)"
       x1="59.510406"
       y1="8.375"
       x2="87.042259"
       y2="92.265244" />
    <linearGradient
       inkscape:collect="always"
       id="linearGradient7088">
      <stop
         style="stop-color:#ffffff;stop-opacity:1;"
         offset="0"
         id="stop7090" />
      <stop
         style="stop-color:#ffffff;stop-opacity:0;"
         offset="1"
         id="stop7092" />
    </linearGradient>
    <linearGradient
       inkscape:collect="always"
       xlink:href="#linearGradient7088"
       id="linearGradient7005"
       gradientUnits="userSpaceOnUse"
       x1="21.8125"
       y1="7.6875"
       x2="26.5"
       y2="19.9375" />
    <linearGradient
       id="linearGradient5694">
      <stop
         id="stop5696"
         offset="0"
         style="stop-color:#d4d4d4;stop-opacity:1" />
      <stop
         id="stop5698"
         offset="1"
         style="stop-color:#888a85;stop-opacity:1" />
    </linearGradient>
    <radialGradient
       inkscape:collect="always"
       xlink:href="#linearGradient5694"
       id="radialGradient6999"
       gradientUnits="userSpaceOnUse"
       gradientTransform="matrix(0.59113,0,0,2.3881063,-21.083046,-54.696549)"
       cx="64.5"
       cy="29.797501"
       fx="64.5"
       fy="29.797501"
       r="10.5" />
  </defs>
  <sodipodi:namedview
     id="base"
     pagecolor="#ffffff"
     bordercolor="#666666"
     borderopacity="1.0"
     inkscape:pageopacity="0.0"
     inkscape:pageshadow="2"
     inkscape:zoom="22.197802"
     inkscape:cx="8"
     inkscape:cy="7.9774752"
     inkscape:current-layer="layer1"
     showgrid="true"
     inkscape:grid-bbox="true"
     inkscape:document-units="px"
     inkscape:window-width="641"
     inkscape:window-height="671"
     inkscape:window-x="18"
     inkscape:window-y="106">
    <inkscape:grid
       type="xygrid"
       id="grid5069" />
  </sodipodi:namedview>
  <metadata
     id="metadata5043">
    <rdf:RDF>
      <cc:Work
         rdf:about="">
        <dc:format>image/svg+xml</dc:format>
        <dc:type
           rdf:resource="http://purl.org/dc/dcmitype/StillImage" />
      </cc:Work>
    </rdf:RDF>
  </metadata>
  <g
     id="layer1"
     inkscape:label="Layer 1"
     inkscape:groupmode="layer">
    <path
       style="opacity:1;fill:#babdb6;fill-opacity:1;stroke:#555753;stroke-width:0.99999982;stroke-linecap:butt;stroke-linejoin:miter;stroke-miterlimit:4;stroke-dasharray:none;stroke-dashoffset:0;stroke-opacity:1;display:inline"
       d="M 8.0241845,0.49821516 C 7.5601977,0.49821516 7.0810738,0.54130586 6.6403295,0.62279386 L 6.1213838,3.7621776 L 3.8231958,1.7938338 L 3.798484,1.7938338 C 3.0232113,2.3220663 2.3535487,2.9865178 1.8215481,3.7621776 L 3.5760787,6.2288362 L 0.63538663,6.6025724 C 0.54437963,7.0729752 0.51182813,7.550561 0.51182813,8.0476855 C 0.51182813,8.5155037 0.55456553,8.9985837 0.63538663,9.4429673 L 3.6255022,9.866535 L 1.7968365,12.283362 C 2.3203725,13.064486 2.980443,13.740407 3.7490607,14.276621 L 6.0719604,12.557435 L 6.5414826,15.472577 C 7.0096306,15.564992 7.5293235,15.622071 8.0241845,15.622071 C 8.4865955,15.622071 8.9192773,15.578441 9.3586163,15.497493 L 9.7787153,12.457772 L 12.200462,14.326453 C 12.975189,13.798594 13.645574,13.133073 14.177397,12.358109 L 12.324021,9.9163665 L 15.338847,9.5177146 C 15.430506,9.0457012 15.511829,8.546632 15.511829,8.0476855 C 15.51183,7.5814566 15.443844,7.1202862 15.363559,6.6773196 L 12.497002,6.2288362 L 14.226821,3.8618406 C 14.223318,3.8565852 14.230337,3.8421708 14.226821,3.8369248 C 13.702915,3.0552504 13.043903,2.3800585 12.274597,1.8436652 L 9.8034273,3.6625146 L 9.4574633,0.64770956 C 8.9898863,0.55552946 8.518398,0.49821516 8.0241845,0.49821516 z M 8.0983197,6.054426 C 9.1827683,6.0544258 10.050544,6.9293674 10.050544,8.0227698 C 10.050544,9.1161725 9.1827683,10.016029 8.0983197,10.016029 C 7.0138713,10.016029 6.1213838,9.1161725 6.1213838,8.0227698 C 6.1213836,6.9293678 7.0138714,6.054426 8.0983197,6.054426 z"
       id="path7047" />
    <path
       style="opacity:0.65217393;fill:none;fill-opacity:1;stroke:#ffffff;stroke-width:0.99999988;stroke-linecap:butt;stroke-linejoin:miter;stroke-miterlimit:4;stroke-dasharray:none;stroke-dashoffset:0;stroke-opacity:1;display:inline"
       d="M 8.0419003,1.5813863 C 7.642273,1.5813863 7.777986,1.627727 7.3983777,1.6969408 L 7.10435,4.0175572 L 6.2723161,4.8967596 L 4.0357014,3.0143664 C 3.3256876,3.4244793 3.4599887,3.3258023 2.9507139,3.9524389 L 4.8244248,6.2820592 L 4.4166696,7.1757337 L 1.6551372,7.398983 C 1.5767539,7.7985309 1.5725464,7.6394576 1.5725464,8.0617022 C 1.5725464,8.4590543 1.5182763,8.3897609 1.5878866,8.7672091 L 4.4545457,9.1516614 L 4.6920223,9.9381087 L 3.0128519,12.132448 C 3.4637677,12.795913 3.2625965,12.600812 3.9245985,13.056258 L 6.2335773,11.327209 L 7.1134924,11.971763 L 7.3208998,14.493506 C 7.7241107,14.572003 7.6156812,14.494236 8.0419003,14.494236 C 8.4401695,14.494236 8.2540292,14.581521 8.6324273,14.512766 L 9.0523553,11.796506 L 9.8945323,11.272398 L 12.148975,13.161819 C 12.816238,12.713469 12.622038,12.814938 13.08009,12.156704 L 11.353039,10.10358 L 11.576258,9.2237007 L 14.389923,8.8442454 C 14.468868,8.44333 14.491883,8.4854941 14.491883,8.0617022 C 14.491883,7.6656995 14.545693,7.7852208 14.476544,7.408977 L 11.79738,7.1921299 L 11.230778,6.3147488 L 13.186079,4.0965177 C 12.747238,3.4572297 13.504303,4.3497736 12.173457,3.1534483 L 9.8420783,4.9398072 L 8.9229663,4.3461573 L 8.7099053,1.7161998 C 8.3071864,1.6379044 8.467561,1.5813863 8.0419003,1.5813863 z"
       id="path5056"
       sodipodi:nodetypes="cccccccccsccccccccsccccccccsccccccccc" />
    <path
       sodipodi:type="arc"
       style="opacity:0.47282607;fill:none;fill-opacity:1;stroke:#ffffff;stroke-width:1.42931104;stroke-linecap:butt;stroke-linejoin:miter;stroke-miterlimit:4;stroke-dasharray:none;stroke-dashoffset:0;stroke-opacity:1;display:inline"
       id="path6016"
       sodipodi:cx="11.38"
       sodipodi:cy="10.885165"
       sodipodi:rx="3.9995728"
       sodipodi:ry="3.9995728"
       d="M 15.379573,10.885165 A 3.9995728,3.9995728 0 1 1 7.3804274,10.885165 A 3.9995728,3.9995728 0 1 1 15.379573,10.885165 z"
       transform="matrix(0.6956222,0,0,0.7036764,0.1735016,0.3669658)" />
    <g
       style="display:inline"
       id="g6959"
       transform="matrix(0.6741308,0,0,0.6770481,1.0349038,2.3423049)">
      <path
         id="path6961"
         d="M 20.469955,16.495866 L 13.239632,9.2655431"
         style="fill:none;fill-rule:evenodd;stroke:#888a85;stroke-width:1.48019218px;stroke-linecap:butt;stroke-linejoin:miter;stroke-opacity:1" />
      <path
         sodipodi:nodetypes="ccccccccc"
         id="path6963"
         d="M 14.847243,6.1518824 C 13.597044,6.1518824 12.594005,6.9641995 12.594005,7.632494 L 12.594005,15.206108 C 12.594005,17.237178 13.696298,19.445616 15.069775,19.445616 L 19.019888,19.445616 C 20.393375,19.445616 21.495668,17.237178 21.495668,15.206108 L 21.495668,7.632494 C 21.495668,6.9641995 20.492628,6.1518824 19.24243,6.1518824 L 14.847243,6.1518824 z"
         style="opacity:1;fill:url(#radialGradient6999);fill-opacity:1;fill-rule:evenodd;stroke:#555753;stroke-width:1.4801923;stroke-linecap:round;stroke-linejoin:miter;stroke-miterlimit:4;stroke-dasharray:none;stroke-opacity:1;display:inline" />
      <g
         transform="matrix(1,0,0,0.7603086,14.731427,4.2050261)"
         id="g6965"
         style="display:inline">
        <path
           style="fill:none;fill-rule:evenodd;stroke:#555753;stroke-width:1.69755244px;stroke-linecap:round;stroke-linejoin:miter;stroke-opacity:1"
           d="M 6.7287745,0.62076654 L 6.7287745,4.4078121"
           id="path6232"
           sodipodi:nodetypes="cc" />
      </g>
      <path
         transform="matrix(0.3921012,0,0,0.3157895,7.4347763,5.0835193)"
         d="M 19.5625,5.8125 C 18.213612,5.8125 17.012011,6.1844813 16.15625,6.78125 C 15.300489,7.3780187 14.8125,8.1651686 14.8125,9.03125 L 14.8125,33.75 C 14.8125,36.687991 15.398699,39.331337 16.375,41.21875 C 17.351301,43.106163 18.673827,44.1875 20.0625,44.1875 L 28.9375,44.1875 C 30.326173,44.1875 31.648699,43.106163 32.625,41.21875 C 33.601301,39.331337 34.1875,36.687991 34.1875,33.75 L 34.1875,9.03125 C 34.1875,8.1651686 33.699511,7.3780187 32.84375,6.78125 C 31.987989,6.1844813 30.786388,5.8125 29.4375,5.8125 L 19.5625,5.8125 z"
         id="path6973"
         style="opacity:0.47761195;fill:url(#linearGradient7005);fill-opacity:1;fill-rule:evenodd;stroke:none;stroke-width:1;stroke-linecap:round;stroke-linejoin:miter;stroke-miterlimit:4;stroke-dasharray:none;stroke-opacity:1;display:inline"
         inkscape:original="M 19.5625 5.5 C 16.753603 5.5 14.5 7.0706659 14.5 9.03125 L 14.5 33.75 C 14.5 39.708578 16.976602 44.5 20.0625 44.5 L 28.9375 44.5 C 32.023397 44.5 34.5 39.708577 34.5 33.75 L 34.5 9.03125 C 34.5 7.0706659 32.246396 5.5 29.4375 5.5 L 19.5625 5.5 z "
         inkscape:radius="-0.29808208"
         sodipodi:type="inkscape:offset" />
      <rect
         ry="0.82127732"
         rx="0.66132325"
         y="8.3510618"
         x="14.757897"
         height="4.4309998"
         width="4.5410995"
         id="rect6975"
         style="opacity:1;fill:#888a85;fill-opacity:1;fill-rule:evenodd;stroke:none;stroke-width:1.48019207;stroke-linecap:round;stroke-linejoin:miter;stroke-miterlimit:4;stroke-dasharray:none;stroke-opacity:1;display:inline" />
      <path
         sodipodi:nodetypes="csccsccsccscc"
         id="path6977"
         d="M 15.389384,7.6414436 C 14.980009,7.6414436 14.612781,7.7366727 14.3715,7.8759143 C 14.130228,8.0151559 14.025212,8.1783162 14.025212,8.344856 L 14.025212,15.21398 C 14.025212,16.003616 14.223492,16.714018 14.528903,17.20264 C 14.834324,17.691262 15.211982,17.923421 15.557287,17.923421 L 18.537472,17.923421 C 18.882777,17.923421 19.260435,17.691262 19.565855,17.20264 C 19.871267,16.714018 20.069546,16.003615 20.069546,15.21398 L 20.069546,8.344856 C 20.069546,8.1783162 19.964539,8.0151559 19.723258,7.8759143 C 19.481977,7.7366727 19.11474,7.6414436 18.705375,7.6414436 L 15.389384,7.6414436 z"
         style="opacity:0.625;fill:none;fill-opacity:1;fill-rule:evenodd;stroke:url(#linearGradient7009);stroke-width:1.48019218;stroke-linecap:round;stroke-linejoin:miter;stroke-miterlimit:4;stroke-opacity:1;display:inline" />
    </g>
  </g>
</svg>
